<svg width="128" height="128" viewBox="0 0 128 128" fill="none" xmlns="http://www.w3.org/2000/svg">
<rect width="128" height="128" fill="black"/>
<rect width="128" height="128" rx="25" fill="#0D0D0D"/>
<path d="M23.4222 51.93C24.4122 50.5367 25.7689 49.3817 27.4922 48.465C29.2522 47.5117 31.2506 47.035 33.4872 47.035C36.0906 47.035 38.4372 47.6767 40.5272 48.96C42.6539 50.2433 44.3222 52.0767 45.5322 54.46C46.7789 56.8067 47.4022 59.5383 47.4022 62.655C47.4022 65.7717 46.7789 68.54 45.5322 70.96C44.3222 73.3433 42.6539 75.195 40.5272 76.515C38.4372 77.835 36.0906 78.495 33.4872 78.495C31.2506 78.495 29.2706 78.0367 27.5472 77.12C25.8606 76.2033 24.4856 75.0483 23.4222 73.655V92.52H15.7222V47.53H23.4222V51.93ZM39.5372 62.655C39.5372 60.8217 39.1522 59.245 38.3822 57.925C37.6489 56.5683 36.6589 55.5417 35.4122 54.845C34.2022 54.1483 32.8822 53.8 31.4522 53.8C30.0589 53.8 28.7389 54.1667 27.4922 54.9C26.2822 55.5967 25.2922 56.6233 24.5222 57.98C23.7889 59.3367 23.4222 60.9317 23.4222 62.765C23.4222 64.5983 23.7889 66.1933 24.5222 67.55C25.2922 68.9067 26.2822 69.9517 27.4922 70.685C28.7389 71.3817 30.0589 71.73 31.4522 71.73C32.8822 71.73 34.2022 71.3633 35.4122 70.63C36.6589 69.8967 37.6489 68.8517 38.3822 67.495C39.1522 66.1383 39.5372 64.525 39.5372 62.655ZM56.4076 78.385C55.0143 78.385 53.8593 77.9633 52.9426 77.12C52.0626 76.24 51.6226 75.1583 51.6226 73.875C51.6226 72.5917 52.0626 71.5283 52.9426 70.685C53.8593 69.805 55.0143 69.365 56.4076 69.365C57.7643 69.365 58.8826 69.805 59.7626 70.685C60.6426 71.5283 61.0826 72.5917 61.0826 73.875C61.0826 75.1583 60.6426 76.24 59.7626 77.12C58.8826 77.9633 57.7643 78.385 56.4076 78.385ZM65.3047 62.655C65.3047 59.575 65.9097 56.8433 67.1197 54.46C68.3664 52.0767 70.0347 50.2433 72.1247 48.96C74.2514 47.6767 76.6164 47.035 79.2197 47.035C81.4931 47.035 83.4731 47.4933 85.1597 48.41C86.8831 49.3267 88.2581 50.4817 89.2847 51.875V47.53H97.0397V78H89.2847V73.545C88.2947 74.975 86.9197 76.1667 85.1597 77.12C83.4364 78.0367 81.4381 78.495 79.1647 78.495C76.5981 78.495 74.2514 77.835 72.1247 76.515C70.0347 75.195 68.3664 73.3433 67.1197 70.96C65.9097 68.54 65.3047 65.7717 65.3047 62.655ZM89.2847 62.765C89.2847 60.895 88.9181 59.3 88.1847 57.98C87.4514 56.6233 86.4614 55.5967 85.2147 54.9C83.9681 54.1667 82.6297 53.8 81.1997 53.8C79.7697 53.8 78.4497 54.1483 77.2397 54.845C76.0297 55.5417 75.0397 56.5683 74.2697 57.925C73.5364 59.245 73.1697 60.8217 73.1697 62.655C73.1697 64.4883 73.5364 66.1017 74.2697 67.495C75.0397 68.8517 76.0297 69.8967 77.2397 70.63C78.4864 71.3633 79.8064 71.73 81.1997 71.73C82.6297 71.73 83.9681 71.3817 85.2147 70.685C86.4614 69.9517 87.4514 68.925 88.1847 67.605C88.9181 66.2483 89.2847 64.635 89.2847 62.765ZM108.465 43.9C107.108 43.9 105.972 43.4783 105.055 42.635C104.175 41.755 103.735 40.6733 103.735 39.39C103.735 38.1067 104.175 37.0433 105.055 36.2C105.972 35.32 107.108 34.88 108.465 34.88C109.822 34.88 110.94 35.32 111.82 36.2C112.737 37.0433 113.195 38.1067 113.195 39.39C113.195 40.6733 112.737 41.755 111.82 42.635C110.94 43.4783 109.822 43.9 108.465 43.9ZM112.26 47.53V78H104.56V47.53H112.26Z" fill="white"/>
</svg>
